<?xml version="1.0" encoding="UTF-8"?>
<svg xmlns="http://www.w3.org/2000/svg" xmlns:xlink="http://www.w3.org/1999/xlink" width="375pt" height="374.999991pt" viewBox="0 0 375 374.999991" version="1.2">
<defs>
<clipPath id="clip1">
  <path d="M 29.96875 50.832031 L 338.589844 50.832031 L 338.589844 359.453125 L 29.96875 359.453125 Z M 29.96875 50.832031 "/>
</clipPath>
</defs>
<g id="surface1">
<rect x="0" y="0" width="375" height="374.999991" style="fill:rgb(100%,100%,100%);fill-opacity:1;stroke:none;"/>
<rect x="0" y="0" width="375" height="374.999991" style="fill:rgb(100%,100%,100%);fill-opacity:1;stroke:none;"/>
<rect x="0" y="0" width="375" height="374.999991" style="fill:rgb(100%,100%,100%);fill-opacity:1;stroke:none;"/>
<path style=" stroke:none;fill-rule:nonzero;fill:rgb(85.099792%,85.099792%,85.099792%);fill-opacity:1;" d="M 3.914062 50.84375 L 89.183594 50.84375 L 89.183594 361.972656 L 3.914062 361.972656 Z M 3.914062 50.84375 "/>
<g clip-path="url(#clip1)" clip-rule="nonzero">
<path style=" stroke:none;fill-rule:nonzero;fill:rgb(85.099792%,85.099792%,85.099792%);fill-opacity:1;" d="M 184.277344 50.832031 C 99.191406 50.832031 29.96875 120.058594 29.96875 205.144531 C 29.96875 290.230469 99.191406 359.453125 184.277344 359.453125 C 269.363281 359.453125 338.589844 290.230469 338.589844 205.144531 C 338.589844 120.058594 269.363281 50.832031 184.277344 50.832031 Z M 184.277344 91.089844 C 210.175781 91.089844 231.242188 112.15625 231.242188 138.050781 C 231.242188 163.949219 210.175781 185.015625 184.277344 185.015625 C 158.382812 185.015625 137.3125 163.949219 137.3125 138.050781 C 137.3125 112.15625 158.382812 91.089844 184.277344 91.089844 Z M 264.789062 292.363281 L 103.769531 292.363281 C 100.066406 292.363281 97.058594 289.355469 97.058594 285.652344 C 97.058594 237.5625 136.1875 198.433594 184.277344 198.433594 C 232.371094 198.433594 271.496094 237.5625 271.496094 285.652344 C 271.496094 289.355469 268.492188 292.363281 264.789062 292.363281 Z M 264.789062 292.363281 "/>
</g>
<path style=" stroke:none;fill-rule:nonzero;fill:rgb(85.099792%,85.099792%,85.099792%);fill-opacity:1;" d="M 285.988281 50.84375 L 371.257812 50.84375 L 371.257812 361.972656 L 285.988281 361.972656 Z M 285.988281 50.84375 "/>
<path style=" stroke:none;fill-rule:nonzero;fill:rgb(85.099792%,85.099792%,85.099792%);fill-opacity:1;" d="M 3.929688 88.734375 L 3.929688 12.769531 L 371.152344 12.769531 L 371.152344 88.734375 Z M 3.929688 88.734375 "/>
<path style=" stroke:none;fill-rule:nonzero;fill:rgb(85.099792%,85.099792%,85.099792%);fill-opacity:1;" d="M 3.925781 362.066406 L 3.925781 316.203125 L 371.109375 316.203125 L 371.109375 362.066406 Z M 3.925781 362.066406 "/>
</g>
</svg>
