<?xml version="1.0" encoding="UTF-8"?>
<svg xmlns="http://www.w3.org/2000/svg" xmlns:xlink="http://www.w3.org/1999/xlink" width="375pt" height="374.999991pt" viewBox="0 0 375 374.999991" version="1.2">
<defs>
<clipPath id="clip1">
  <path d="M 125 68.582031 L 250 68.582031 L 250 193 L 125 193 Z M 125 68.582031 "/>
</clipPath>
<clipPath id="clip2">
  <path d="M 68.582031 199 L 306.417969 199 L 306.417969 306.417969 L 68.582031 306.417969 Z M 68.582031 199 "/>
</clipPath>
</defs>
<g id="surface1">
<path style=" stroke:none;fill-rule:nonzero;fill:rgb(100%,100%,100%);fill-opacity:1;" d="M 330.351562 351.660156 L 45.296875 351.660156 C 33.554688 351.660156 23.988281 342.09375 23.988281 330.351562 L 23.988281 45.296875 C 23.988281 33.554688 33.554688 23.988281 45.296875 23.988281 L 330.351562 23.988281 C 342.09375 23.988281 351.660156 33.554688 351.660156 45.296875 L 351.660156 330.351562 C 351.660156 342.09375 342.09375 351.660156 330.351562 351.660156 Z M 330.351562 351.660156 "/>
<g clip-path="url(#clip1)" clip-rule="nonzero">
<path style=" stroke:none;fill-rule:nonzero;fill:rgb(8.239746%,9.01947%,10.5896%);fill-opacity:1;" d="M 187.5 192.257812 C 221.597656 192.257812 249.335938 164.515625 249.335938 130.417969 C 249.335938 96.324219 221.597656 68.582031 187.5 68.582031 C 153.402344 68.582031 125.664062 96.324219 125.664062 130.417969 C 125.664062 164.515625 153.402344 192.257812 187.5 192.257812 Z M 187.5 192.257812 "/>
</g>
<g clip-path="url(#clip2)" clip-rule="nonzero">
<path style=" stroke:none;fill-rule:nonzero;fill:rgb(8.239746%,9.01947%,10.5896%);fill-opacity:1;" d="M 249.761719 200.339844 C 248.046875 199.28125 245.855469 199.421875 244.277344 200.691406 C 228.015625 213.84375 208.382812 220.796875 187.5 220.796875 C 166.617188 220.796875 146.988281 213.84375 130.730469 200.691406 C 129.164062 199.421875 126.960938 199.277344 125.246094 200.339844 C 89.765625 222.1875 68.582031 260.0625 68.582031 301.660156 C 68.582031 304.289062 70.714844 306.417969 73.339844 306.417969 L 301.660156 306.417969 C 304.289062 306.417969 306.417969 304.289062 306.417969 301.660156 C 306.417969 260.0625 285.234375 222.1875 249.761719 200.339844 Z M 249.761719 200.339844 "/>
</g>
</g>
</svg>
